<?xml version="1.0" standalone="no"?><!DOCTYPE svg PUBLIC "-//W3C//DTD SVG 1.1//EN" "http://www.w3.org/Graphics/SVG/1.1/DTD/svg11.dtd"><svg t="1573196433590" class="icon" viewBox="0 0 1024 1024" version="1.1" xmlns="http://www.w3.org/2000/svg" p-id="3256" width="32" height="32" xmlns:xlink="http://www.w3.org/1999/xlink"><defs><style type="text/css"></style></defs><path d="M888.6 862l-145-145c59.9-65.8 96.8-152.9 96.8-248.9C840.4 263.7 674.7 98 470.3 98s-370 165.8-370 370.2 165.7 370 370.1 370c95.1 0 181.5-36.2 247.1-95.1l145 145c7.2 7.2 19 7.2 26.2 0 7.1-7.1 7.1-18.9-0.1-26.1zM137.3 468.2c0-183.9 149.1-333.1 333.1-333.1s333.1 149.1 333.1 333.1c0 183.9-149.1 333.1-333.1 333.1S137.3 652.1 137.3 468.2z" fill="#03a9f4" p-id="3257"></path></svg>